HIERARCHY
ROOT Hips
{
	OFFSET	0.00	0.00	0.00
	CHANNELS 6 Xposition Yposition Zposition Zrotation Xrotation Yrotation
	JOINT LeftUpLeg
	{
		OFFSET	 0.126116	-0.014019	-0.065224
		CHANNELS 3 Zrotation Xrotation Yrotation
		JOINT LeftLeg
		{
			OFFSET	 0.000000	 0.000000	 0.569914
			CHANNELS 3 Zrotation Xrotation Yrotation
			JOINT LeftFoot
			{
				OFFSET	 0.000000	 0.000000	 0.544423
				CHANNELS 3 Zrotation Xrotation Yrotation
				JOINT LeftToeBase
				{
					OFFSET	 0.000000	 0.000000	 0.207117
					CHANNELS 3 Zrotation Xrotation Yrotation
					End Site
					{
						OFFSET	 0.000000	 0.000000	 0.207117
					}
				}
			}
		}
	}
	JOINT RightUpLeg
	{
		OFFSET	-0.124023	-0.008373	-0.065224
		CHANNELS 3 Zrotation Xrotation Yrotation
		JOINT RightLeg
		{
			OFFSET	 0.000000	 0.000000	 0.570047
			CHANNELS 3 Zrotation Xrotation Yrotation
			JOINT RightFoot
			{
				OFFSET	 0.000000	 0.000000	 0.544354
				CHANNELS 3 Zrotation Xrotation Yrotation
				JOINT RightToeBase
				{
					OFFSET	 0.000000	 0.000000	 0.207540
					CHANNELS 3 Zrotation Xrotation Yrotation
					End Site
					{
						OFFSET	 0.000000	 0.000000	 0.207540
					}
				}
			}
		}
	}
	JOINT Spine
	{
		OFFSET	 0.000184	-0.007763	 0.117403
		CHANNELS 3 Zrotation Xrotation Yrotation
		JOINT Spine1
		{
			OFFSET	 0.000000	 0.000000	 0.137269
			CHANNELS 3 Zrotation Xrotation Yrotation
			JOINT Spine2
			{
				OFFSET	 0.000000	 0.000000	 0.156879
				CHANNELS 3 Zrotation Xrotation Yrotation
				JOINT LeftShoulder
				{
					OFFSET	 0.080501	-0.002496	 0.160144
					CHANNELS 3 Zrotation Xrotation Yrotation
					JOINT LeftArm
					{
						OFFSET	 0.000000	 0.000000	 0.164363
						CHANNELS 3 Zrotation Xrotation Yrotation
						JOINT LeftForeArm
						{
							OFFSET	 0.000000	 0.000000	 0.364576
							CHANNELS 3 Zrotation Xrotation Yrotation
							JOINT LeftHand
							{
								OFFSET	 0.000000	 0.000000	 0.360812
								CHANNELS 3 Zrotation Xrotation Yrotation
								JOINT LeftHandIndex1
								{
									OFFSET	 0.000000	 0.000000	 0.086006
									CHANNELS 3 Zrotation Xrotation Yrotation
									JOINT LeftHandIndex2
									{
										OFFSET	 0.000000	 0.000000	 0.047236
										CHANNELS 3 Zrotation Xrotation Yrotation
										JOINT LeftHandIndex3
										{
											OFFSET	-0.004284	-0.000551	 0.038166
											CHANNELS 3 Zrotation Xrotation Yrotation
											End Site
											{
												OFFSET	-0.004284	-0.000551	 0.038166
											}
										}
									}
								}
							}
						}
					}
				}
				JOINT Neck
				{
					OFFSET	 0.000000	 0.000000	 0.176489
					CHANNELS 3 Zrotation Xrotation Yrotation
					JOINT Head
					{
						OFFSET	 0.000000	-0.001747	 0.077940
						CHANNELS 3 Zrotation Xrotation Yrotation
						End Site
						{
							OFFSET	 0.000000	-0.001747	 0.077940
						}
					}
				}
				JOINT RightShoulder
				{
					OFFSET	-0.080363	 0.000306	 0.159706
					CHANNELS 3 Zrotation Xrotation Yrotation
					JOINT RightArm
					{
						OFFSET	 0.000000	 0.000000	 0.164196
						CHANNELS 3 Zrotation Xrotation Yrotation
						JOINT RightForeArm
						{
							OFFSET	 0.000000	 0.000000	 0.365611
							CHANNELS 3 Zrotation Xrotation Yrotation
							JOINT RightHand
							{
								OFFSET	 0.000000	 0.000000	 0.360648
								CHANNELS 3 Zrotation Xrotation Yrotation
								JOINT RightHandIndex1
								{
									OFFSET	 0.000000	 0.000000	 0.069977
									CHANNELS 3 Zrotation Xrotation Yrotation
									JOINT RightHandIndex2
									{
										OFFSET	 0.000000	 0.000000	 0.052305
										CHANNELS 3 Zrotation Xrotation Yrotation
										JOINT RightHandIndex3
										{
											OFFSET	 0.009002	-0.000782	 0.042196
											CHANNELS 3 Zrotation Xrotation Yrotation
											End Site
											{
												OFFSET	 0.009002	-0.000782	 0.042196
											}
										}
									}
								}
							}
						}
					}
				}
			}
		}
	}
}
MOTION
Frames:    9
Frame Time: 0.03333334
-0.028559	 0.307468	 1.034990	 2.575788	 31.932740	-7.608589	 68.132890	-72.814820	-124.521300	 5.456155	-68.944850	 5.483088	 69.933920	 69.122930	-84.721050	-2.385832	 28.452790	-0.000001	 18.484540	-85.363630	-154.658300	-15.236530	-70.604230	-9.528408	-28.879320	 70.957820	 58.512740	 2.384659	 28.388700	-0.000001	-29.392230	 14.260440	 0.685994	-1.680573	 19.717970	 1.169214	-4.136251	-0.473176	 3.476620	-98.821520	 68.428980	 157.500000	 2.096514	-8.560175	-44.580720	 6.687238	-2.163089	-8.661647	-38.208690	-16.744020	-23.106860	-2.027600	 6.559038	 9.033609	-5.188889	 0.308190	 3.541030	-5.234859	 0.342567	 0.430617	-0.179270	 13.999410	-4.775163	-3.124643	-23.144200	-2.547631	 97.253670	 64.388240	-160.009000	-9.620695	 5.498269	 54.873000	-18.516510	-8.110677	 35.349900	 22.015760	-16.286890	 19.176350	 1.803333	 3.979147	-15.098590	 4.898592	 3.004813	-9.310344	 5.224449	 0.395017	 2.014677
-0.025012	 0.305224	 1.057842	 2.673930	 30.046020	-7.081163	 58.615160	-69.858670	-134.524600	 4.520876	-65.503150	 4.494877	 67.473820	 69.119460	-81.268210	-2.385832	 28.452790	-0.000001	-4.248769	-81.371150	-175.748500	-14.206910	-67.229870	-8.364893	-28.034400	 70.738640	 56.933700	 2.384659	 28.388700	-0.000001	-34.873050	 13.742990	 0.323808	-1.132965	 19.865830	 0.291146	-5.306379	-1.833326	 3.346172	-97.961810	 69.493250	 158.595900	 3.037533	-4.729606	-45.779120	 11.242220	-3.558214	-10.721770	-39.505710	-16.932270	-24.617290	-2.027600	 6.559038	 9.033609	-5.188889	 0.308190	 3.541030	-5.234859	 0.342567	 0.430617	-0.776608	 7.545390	-3.313381	-4.568007	-16.767610	-3.323812	 96.865720	 64.172680	-161.222700	-11.650910	 5.717131	 53.229420	-20.497220	-11.839260	 40.803250	 21.991070	-15.656100	 20.589600	 1.803333	 3.979147	-15.098590	 4.898592	 3.004813	-9.310344	 5.224449	 0.395017	 2.014677
-0.020883	 0.301710	 1.081830	 2.638379	 27.902080	-6.183327	 51.062350	-66.323450	-142.949400	 4.026565	-61.917420	 3.921764	 64.962360	 69.267960	-77.673920	-2.385833	 28.452760	 0.000004	-14.036530	-76.300110	 176.154000	-13.638600	-63.390900	-7.603982	-26.898540	 70.644990	 55.060220	 2.384659	 28.388700	-0.000001	-38.275530	 13.178170	-0.102914	-0.570685	 20.270730	-0.622913	-6.423129	-3.689725	 3.078900	-96.199210	 72.259770	 159.798600	 4.351629	 0.701251	-47.753280	 15.929110	-5.262017	-12.628370	-41.113390	-17.188410	-26.743030	-2.027600	 6.559038	 9.033609	-5.188889	 0.308190	 3.541030	-5.234859	 0.342567	 0.430617	-1.190715	-0.800497	-2.271645	-5.737246	-8.652227	-3.418415	 96.026750	 65.473020	-162.345800	-13.849980	 8.139301	 52.295520	-22.427100	-16.572620	 46.376730	 22.108590	-15.506560	 21.797030	 1.803333	 3.979147	-15.098590	 4.898592	 3.004813	-9.310344	 5.224449	 0.395017	 2.014677
-0.017336	 0.296529	 1.106555	 2.542812	 25.486440	-5.149285	 44.756470	-62.282590	-150.324700	 4.016497	-58.135280	 3.767059	 61.412470	 69.560400	-73.236200	-2.385833	 28.452750	 0.000004	-19.229970	-70.494740	 172.667400	-12.254320	-59.207580	-6.114208	-26.642610	 70.598490	 53.439600	 2.384659	 28.388700	-0.000001	-38.517740	 12.621780	-0.402708	 0.078160	 20.495110	-1.522362	-7.354555	-5.616184	 2.786395	-93.628690	 76.119150	 160.832400	 6.240659	 6.761930	-50.717490	 20.308240	-7.045558	-14.191990	-42.396640	-17.510100	-28.884760	-2.027600	 6.559038	 9.033609	-5.188889	 0.308190	 3.541030	-5.234859	 0.342567	 0.430617	-1.550069	-10.236190	-2.451218	-6.561749	 0.323049	-2.323442	 94.747160	 67.985450	-163.655000	-16.213330	 11.663500	 52.296030	-23.410760	-21.553910	 51.994280	 22.495310	-16.113990	 22.823920	 1.803333	 3.979147	-15.098590	 4.898592	 3.004813	-9.310344	 5.224449	 0.395017	 2.014677
-0.014645	 0.288197	 1.130636	 2.905197	 23.468800	-4.342618	 40.430590	-58.194180	-155.495200	 4.124739	-54.227470	 3.640383	 57.462510	 69.819940	-68.358940	-2.385833	 28.452750	 0.000004	-22.527500	-64.929020	 171.219800	-10.218530	-54.924760	-4.154696	-25.731110	 70.463230	 50.633800	 2.384659	 28.388700	-0.000001	-35.331120	 11.468600	-0.786109	 0.633364	 20.410160	-2.225693	-8.035156	-7.612243	 2.076612	-93.751880	 75.583150	 162.898300	 8.143077	 9.222302	-52.019360	 24.186410	-8.715106	-15.378060	-41.866570	-17.223300	-30.817340	-2.027600	 6.559038	 9.033609	-5.188889	 0.308190	 3.541030	-5.234859	 0.342567	 0.430617	-1.668082	-14.342050	-1.287847	-7.250319	 4.372580	-2.493263	 93.893700	 69.423120	-164.886400	-18.259870	 14.797030	 50.705390	-23.282560	-26.270310	 57.596460	 22.445600	-16.366960	 23.306630	 1.803333	 3.979147	-15.098590	 4.898592	 3.004813	-9.310344	 5.224449	 0.395017	 2.014677
-0.013418	 0.276904	 1.155049	 3.236765	 21.546790	-3.539355	 36.565700	-53.783940	-160.245600	 4.009175	-49.982470	 3.392216	 51.991630	 70.123860	-61.956760	-2.385833	 28.452750	 0.000004	-25.190860	-59.019450	 170.531100	-8.297795	-50.285900	-2.425280	-24.618040	 70.171520	 47.226890	 2.384659	 28.388700	-0.000001	-28.942840	 9.804957	-0.798371	 1.307571	 19.738970	-2.572958	-8.603379	-9.518227	 1.211412	-94.421660	 73.723830	 164.946500	 10.406250	 10.221350	-52.233130	 27.660910	-10.203890	-16.260470	-40.227990	-16.810560	-31.238870	-2.027600	 6.559038	 9.033609	-5.188889	 0.308190	 3.541030	-5.234859	 0.342567	 0.430617	-1.808902	-15.294170	-0.977970	-7.572746	 5.593750	-2.237290	 94.018560	 67.261280	-166.732300	-19.991870	 15.414890	 47.476710	-21.914740	-30.542130	 63.614890	 21.549920	-15.698310	 23.364300	 1.803333	 3.979147	-15.098590	 4.898592	 3.004813	-9.310344	 5.224449	 0.395017	 2.014677
-0.013858	 0.265319	 1.173509	 3.500425	 19.698540	-2.453987	 33.635020	-50.009120	-164.388600	 3.878515	-46.790700	 3.133236	 47.111380	 70.544320	-56.095980	-2.385833	 28.452750	 0.000004	-27.376360	-53.466160	 169.999800	-6.656253	-46.478080	-1.095019	-24.337610	 70.455880	 44.671740	 2.384659	 28.388700	-0.000001	-20.202460	 8.281115	-0.849090	 1.902838	 18.863120	-2.804596	-8.968692	-11.010310	 0.281765	-94.823010	 71.722890	 166.874700	 12.278560	 10.599580	-52.413600	 30.450800	-11.308610	-16.821590	-38.311800	-16.429490	-29.895680	-2.027600	 6.559038	 9.033609	-5.188889	 0.308190	 3.541030	-5.234859	 0.342567	 0.430617	-1.856582	-15.022100	-0.670445	-7.686317	 5.922189	-2.130662	 93.923570	 64.794840	-168.775000	-21.515630	 15.697050	 46.104910	-20.992200	-33.545820	 67.289730	 20.535150	-14.889240	 22.852670	 1.803333	 3.979147	-15.098590	 4.898592	 3.004813	-9.310344	 5.224449	 0.395017	 2.014677
-0.013959	 0.250949	 1.188862	 3.668968	 17.093900	-1.455328	 31.482890	-45.306530	-168.325000	 3.558116	-43.756520	 2.751160	 43.170190	 71.395930	-50.749830	-2.385833	 28.452750	 0.000004	-28.564140	-47.469080	 170.613400	-4.996879	-43.181510	 0.102232	-23.744630	 71.361510	 41.559420	 2.384659	 28.388700	-0.000001	-9.531595	 7.023899	-0.852357	 2.033095	 17.136560	-2.769373	-8.944720	-10.954280	-0.251603	-94.724530	 70.638770	 168.640200	 13.354410	 11.211570	-53.040010	 32.604210	-12.009430	-17.143760	-36.622020	-15.887340	-28.590590	-2.027600	 6.559038	 9.033609	-5.188889	 0.308190	 3.541030	-5.234859	 0.342567	 0.430617	-1.885615	-13.907990	-0.709463	-7.606023	 5.952411	-1.997416	 93.521970	 63.995460	-170.225000	-22.696680	 17.339340	 45.432900	-20.043780	-35.921930	 70.446770	 19.741400	-14.299250	 22.531830	 1.803333	 3.979147	-15.098590	 4.898592	 3.004813	-9.310344	 5.224449	 0.395017	 2.014677
-0.013039	 0.233278	 1.199996	 3.601366	 13.532670	-1.061464	 30.497640	-39.254300	-171.627500	 2.983094	-40.863620	 2.225744	 37.060860	 72.394750	-42.825320	-2.385833	 28.452760	 0.000004	-28.575990	-41.560970	 172.815600	-3.483023	-41.076930	 1.093055	-20.126970	 72.289920	 35.308820	 2.384659	 28.388700	-0.000001	 2.576684	 6.340264	-0.669248	 1.915240	 15.651020	-2.289429	-8.585770	-10.058630	-0.273376	-94.412800	 70.150710	 170.276700	 13.722930	 11.492240	-54.121360	 34.055500	-12.233970	-17.235590	-35.152860	-15.339060	-28.316240	-2.027600	 6.559038	 9.033609	-5.188889	 0.308190	 3.541030	-5.234859	 0.342567	 0.430617	-1.992791	-11.973940	-1.188921	-7.262341	 5.341761	-1.763089	 93.118510	 63.050880	-171.618700	-23.325450	 18.567780	 44.736660	-18.752210	-37.305090	 73.395320	 19.129810	-13.689630	 22.595590	 1.803333	 3.979147	-15.098590	 4.898592	 3.004813	-9.310344	 5.224449	 0.395017	 2.014677
